<?xml version="1.0" encoding="UTF-8" standalone="no"?>
<!DOCTYPE svg PUBLIC "-//W3C//DTD SVG 1.1//EN"
 "http://www.w3.org/Graphics/SVG/1.1/DTD/svg11.dtd">
<!-- Generated by graphviz version 2.47.0 (20210316.0004)
 -->
<!-- Title: dependencies Pages: 1 -->
<svg width="752pt" height="211pt"
 viewBox="0.00 0.00 752.00 211.00" xmlns="http://www.w3.org/2000/svg" xmlns:xlink="http://www.w3.org/1999/xlink">
<g id="graph0" class="graph" transform="scale(1 1) rotate(0) translate(4 207)">
<title>dependencies</title>
<polygon fill="white" stroke="transparent" points="-4,4 -4,-207 748,-207 748,4 -4,4"/>
<text text-anchor="start" x="351.01" y="-42.4" font-family="sans-serif" font-weight="bold" font-size="14.00">Legend</text>
<polygon fill="#ffffb3" stroke="transparent" points="138,-10 138,-30 158,-30 158,-10 138,-10"/>
<text text-anchor="start" x="161.63" y="-15.4" font-family="sans-serif" font-size="14.00"> &#160;Declarations</text>
<polygon fill="#8dd3c7" stroke="transparent" points="251,-10 251,-30 271,-30 271,-10 251,-10"/>
<text text-anchor="start" x="274.73" y="-15.4" font-family="sans-serif" font-size="14.00"> &#160;Module</text>
<polygon fill="#80b1d3" stroke="transparent" points="337,-10 337,-30 357,-30 357,-10 337,-10"/>
<text text-anchor="start" x="360.78" y="-15.4" font-family="sans-serif" font-size="14.00"> &#160;Bootstrap</text>
<polygon fill="#fdb462" stroke="transparent" points="434,-10 434,-30 454,-30 454,-10 434,-10"/>
<text text-anchor="start" x="457.67" y="-15.4" font-family="sans-serif" font-size="14.00"> &#160;Providers</text>
<polygon fill="#fb8072" stroke="transparent" points="530,-10 530,-30 550,-30 550,-10 530,-10"/>
<text text-anchor="start" x="553.73" y="-15.4" font-family="sans-serif" font-size="14.00"> &#160;Exports</text>
<g id="clust1" class="cluster">
<title>cluster_AppModule</title>
<polygon fill="none" stroke="black" stroke-dasharray="1,5" points="8,-70 8,-195 736,-195 736,-70 8,-70"/>
</g>
<g id="clust6" class="cluster">
<title>cluster_AppModule_providers</title>
<polygon fill="none" stroke="black" points="598,-78 598,-130 728,-130 728,-78 598,-78"/>
</g>
<g id="clust3" class="cluster">
<title>cluster_AppModule_imports</title>
<polygon fill="none" stroke="black" points="16,-78 16,-130 590,-130 590,-78 16,-78"/>
</g>
<!-- AuthModule -->
<g id="node1" class="node">
<title>AuthModule</title>
<polygon fill="#8dd3c7" stroke="black" points="581.55,-122 578.55,-126 557.55,-126 554.55,-122 494.45,-122 494.45,-86 581.55,-86 581.55,-122"/>
<text text-anchor="middle" x="538" y="-99.8" font-family="Times,serif" font-size="14.00">AuthModule</text>
</g>
<!-- AppModule -->
<g id="node6" class="node">
<title>AppModule</title>
<polygon fill="#8dd3c7" stroke="black" points="394.66,-187 391.66,-191 370.66,-191 367.66,-187 311.34,-187 311.34,-151 394.66,-151 394.66,-187"/>
<text text-anchor="middle" x="353" y="-164.8" font-family="Times,serif" font-size="14.00">AppModule</text>
</g>
<!-- AuthModule&#45;&gt;AppModule -->
<g id="edge1" class="edge">
<title>AuthModule&#45;&gt;AppModule</title>
<path fill="none" stroke="black" d="M538,-122.02C538,-139.37 538,-163 538,-163 538,-163 404.98,-163 404.98,-163"/>
<polygon fill="black" stroke="black" points="404.98,-159.5 394.98,-163 404.98,-166.5 404.98,-159.5"/>
</g>
<!-- CategoriesModule -->
<g id="node2" class="node">
<title>CategoriesModule</title>
<polygon fill="#8dd3c7" stroke="black" points="476.92,-122 473.92,-126 452.92,-126 449.92,-122 357.08,-122 357.08,-86 476.92,-86 476.92,-122"/>
<text text-anchor="middle" x="417" y="-99.8" font-family="Times,serif" font-size="14.00">CategoriesModule</text>
</g>
<!-- CategoriesModule&#45;&gt;AppModule -->
<g id="edge2" class="edge">
<title>CategoriesModule&#45;&gt;AppModule</title>
<path fill="none" stroke="black" d="M376.06,-122.11C376.06,-122.11 376.06,-140.99 376.06,-140.99"/>
<polygon fill="black" stroke="black" points="372.56,-140.99 376.06,-150.99 379.56,-140.99 372.56,-140.99"/>
</g>
<!-- ClaimsModule -->
<g id="node3" class="node">
<title>ClaimsModule</title>
<polygon fill="#8dd3c7" stroke="black" points="339.72,-122 336.72,-126 315.72,-126 312.72,-122 240.28,-122 240.28,-86 339.72,-86 339.72,-122"/>
<text text-anchor="middle" x="290" y="-99.8" font-family="Times,serif" font-size="14.00">ClaimsModule</text>
</g>
<!-- ClaimsModule&#45;&gt;AppModule -->
<g id="edge3" class="edge">
<title>ClaimsModule&#45;&gt;AppModule</title>
<path fill="none" stroke="black" d="M325.39,-122.11C325.39,-122.11 325.39,-140.99 325.39,-140.99"/>
<polygon fill="black" stroke="black" points="321.89,-140.99 325.39,-150.99 328.89,-140.99 321.89,-140.99"/>
</g>
<!-- FactsModule -->
<g id="node4" class="node">
<title>FactsModule</title>
<polygon fill="#8dd3c7" stroke="black" points="222.6,-122 219.6,-126 198.6,-126 195.6,-122 133.4,-122 133.4,-86 222.6,-86 222.6,-122"/>
<text text-anchor="middle" x="178" y="-99.8" font-family="Times,serif" font-size="14.00">FactsModule</text>
</g>
<!-- FactsModule&#45;&gt;AppModule -->
<g id="edge4" class="edge">
<title>FactsModule&#45;&gt;AppModule</title>
<path fill="none" stroke="black" d="M178,-122.02C178,-139.37 178,-163 178,-163 178,-163 301.08,-163 301.08,-163"/>
<polygon fill="black" stroke="black" points="301.08,-166.5 311.08,-163 301.08,-159.5 301.08,-166.5"/>
</g>
<!-- UsersModule -->
<g id="node5" class="node">
<title>UsersModule</title>
<polygon fill="#8dd3c7" stroke="black" points="115.92,-122 112.92,-126 91.92,-126 88.92,-122 24.08,-122 24.08,-86 115.92,-86 115.92,-122"/>
<text text-anchor="middle" x="70" y="-99.8" font-family="Times,serif" font-size="14.00">UsersModule</text>
</g>
<!-- UsersModule&#45;&gt;AppModule -->
<g id="edge5" class="edge">
<title>UsersModule&#45;&gt;AppModule</title>
<path fill="none" stroke="black" d="M70,-122.28C70,-143.32 70,-175 70,-175 70,-175 301.24,-175 301.24,-175"/>
<polygon fill="black" stroke="black" points="301.24,-178.5 311.24,-175 301.24,-171.5 301.24,-178.5"/>
</g>
<!-- AppService -->
<g id="node7" class="node">
<title>AppService</title>
<ellipse fill="#fdb462" stroke="black" cx="663" cy="-104" rx="56.74" ry="18"/>
<text text-anchor="middle" x="663" y="-99.8" font-family="Times,serif" font-size="14.00">AppService</text>
</g>
<!-- AppService&#45;&gt;AppModule -->
<g id="edge6" class="edge">
<title>AppService&#45;&gt;AppModule</title>
<path fill="none" stroke="black" d="M663,-122.28C663,-143.32 663,-175 663,-175 663,-175 404.81,-175 404.81,-175"/>
<polygon fill="black" stroke="black" points="404.81,-171.5 394.81,-175 404.81,-178.5 404.81,-171.5"/>
</g>
</g>
</svg>
